<svg width="40" height="40" viewBox="0 0 40 40" fill="none" xmlns="http://www.w3.org/2000/svg">
<path d="M20 40C31.0457 40 40 31.0457 40 20C40 8.9543 31.0457 0 20 0C8.9543 0 0 8.9543 0 20C0 31.0457 8.9543 40 20 40Z" fill="#01AE83"/>
<path fill-rule="evenodd" clip-rule="evenodd" d="M26.7 18L26.6 19.1C26.6 19.1 26.6 19.2 26.5 19.2H24.1C24.1 19.2 24 19.2 24 19.1L24.1 18.1H15.6L15.7 19.1C15.7 19.1 15.7 19.2 15.6 19.2H13.2C13.2 19.2 13.1 19.2 13.1 19.1L13.2 18H10C10 18 10.1 18.3 10.1 18.4C10.2 19.1 10.3 19.7 10.4 20.3V20.4L11 22.2C11 22.4 11 22.5 11.1 22.7C11.2 23.2 11.3 23.7 11.3 24.2L11.7 27.2C11.7 27.3 11.7 27.5 11.8 27.6C11.8 27.8 12 28 12.2 28H13.5C13.6 28 13.7 27.8 13.8 27.7C13.8 27.6 13.9 27.6 14 27.6H26C26.1 27.6 26.2 27.7 26.2 27.7C26.3 27.8 26.3 28 26.5 28H27.8C28 28 28.1 27.7 28.2 27.6V27.2L28.6 24.2C28.7 23.7 28.8 23.2 28.8 22.7C28.8 22.5 28.8 22.5 28.9 22.2L29.5 20.4V20.3C29.6 19.7 29.7 19 29.8 18.4C29.8 18.3 29.9 18 29.9 18H26.7ZM31 16.8C30.6 15.6 30.1 14.4 29.7 13.2C29.7 13.1 29.6 13 29.4 12.9C29.2 12.8 29.2 12.7 29.1 12.6C29 12.3 28.6 12.1 28.2 12.1H27L27.2 14.6L26.6 14.7L26.4 12.4H24.2C24.2 12.4 24.1 12.4 24.1 12.3C24 12.2 23.9 12.1 23.7 12.1H16.5C16.3 12.1 16.2 12.2 16.1 12.3L16 12.4H13.8L13.6 14.7L13 14.6V12H11.8C11.4 12 11.1 12.2 10.9 12.5C10.8 12.7 10.8 12.8 10.6 12.9L10.3 13.2C9.80001 14.4 9.40001 15.5 9.00001 16.7C8.90001 17.1 9.70001 17 9.70001 17H30.2C30.3 17 31.1 17.1 31 16.8Z" fill="white"/>
</svg>
