<svg xmlns="http://www.w3.org/2000/svg"
     id="nav-lock"
     viewBox="0 0 15.341 20">
    <path fill="white"
          id="lock_FILL1_wght500_GRAD0_opsz48"
          d="M155.625-904.783a1.543,1.543,0,0,1-1.132-.471,1.543,1.543,0,0,1-.471-1.132v-10.107a1.551,1.551,0,0,1,.471-1.136,1.541,1.541,0,0,1,1.132-.472h1.534v-2.134a4.393,4.393,0,0,1,1.323-3.219,4.361,4.361,0,0,1,3.209-1.329,4.357,4.357,0,0,1,3.207,1.329,4.4,4.4,0,0,1,1.322,3.219v2.134h1.534a1.549,1.549,0,0,1,1.136.472,1.549,1.549,0,0,1,.472,1.136v10.107a1.541,1.541,0,0,1-.472,1.132,1.552,1.552,0,0,1-1.136.471Zm6.069-4.845a1.76,1.76,0,0,0,1.278-.518,1.681,1.681,0,0,0,.529-1.246,1.844,1.844,0,0,0-.533-1.282,1.685,1.685,0,0,0-1.282-.576,1.673,1.673,0,0,0-1.278.576,1.865,1.865,0,0,0-.529,1.294,1.662,1.662,0,0,0,.533,1.235A1.775,1.775,0,0,0,161.693-909.628Zm-2.932-8.473h5.857v-2.133a2.846,2.846,0,0,0-.85-2.087,2.815,2.815,0,0,0-2.074-.854,2.829,2.829,0,0,0-2.078.854,2.839,2.839,0,0,0-.854,2.087Z"
          transform="translate(-154.022 924.783)" />
</svg>