<svg width="161" height="31" viewBox="0 0 161 31" fill="none" xmlns="http://www.w3.org/2000/svg">
<g clip-path="url(#clip0_2817_145127)">
<path d="M36.3944 18.8896C36.6057 19.3095 36.8169 19.6243 37.1337 19.8343C37.4506 20.0442 37.873 20.2541 38.2955 20.3591C38.7179 20.464 39.246 20.569 39.6684 20.569C39.9853 20.569 40.3021 20.569 40.7246 20.464C41.0414 20.3591 41.4639 20.3591 41.7807 20.1491C42.0976 20.0442 42.4144 19.8343 42.6256 19.5194C42.8369 19.2045 42.9425 18.8896 42.9425 18.4698C42.9425 18.0499 42.8368 17.6301 42.52 17.4202C42.2032 17.1053 41.8863 16.8954 41.3583 16.6855C40.9358 16.4755 40.4077 16.3706 39.7741 16.1607C39.246 16.0557 38.6123 15.8458 37.9786 15.7408C37.3449 15.6359 36.8169 15.4259 36.1832 15.216C35.5495 15.0061 35.1271 14.6912 34.599 14.3763C34.1765 14.0615 33.7541 13.5367 33.4373 13.1168C33.1204 12.592 33.0148 11.9623 33.0148 11.2275C33.0148 10.3879 33.226 9.65314 33.5429 9.02338C33.8597 8.39361 34.3878 7.86881 34.9158 7.44897C35.4439 7.02913 36.1832 6.71425 36.9225 6.50433C37.6618 6.29441 38.4011 6.18945 39.1404 6.18945C39.9853 6.18945 40.8302 6.29441 41.5695 6.50433C42.3088 6.71425 43.0481 7.02913 43.6818 7.44897C44.3154 7.86881 44.7379 8.39361 45.1603 9.12833C45.4772 9.7581 45.6884 10.5978 45.6884 11.5424H42.2032C42.2032 11.0176 42.0976 10.7027 41.8863 10.2829C41.6751 9.96802 41.4639 9.7581 41.147 9.54818C40.8302 9.33826 40.5134 9.23329 40.1965 9.12833C39.7741 9.02337 39.4572 9.02338 38.9292 9.02338C38.6123 9.02338 38.4011 9.02337 38.0842 9.12833C37.7674 9.23329 37.5562 9.33825 37.345 9.44322C37.1337 9.54818 36.9225 9.7581 36.7113 9.96802C36.6057 10.1779 36.5 10.4928 36.5 10.8077C36.5 11.1226 36.6057 11.3325 36.7113 11.5424C36.8169 11.7523 37.0281 11.9623 37.4506 12.0672C37.7674 12.2771 38.2955 12.3821 38.9292 12.592C39.5628 12.8019 40.4077 13.0119 41.4639 13.2218C41.7807 13.3267 42.2032 13.4317 42.7312 13.5367C43.2593 13.7466 43.7874 13.9565 44.3154 14.2714C44.8435 14.5863 45.266 15.1111 45.6884 15.6359C46.1109 16.2656 46.3221 17.0003 46.3221 17.84C46.3221 18.5747 46.2165 19.3095 45.8996 19.9392C45.5828 20.569 45.1603 21.0938 44.6323 21.6186C44.1042 22.0384 43.3649 22.4583 42.52 22.6682C41.6751 22.8781 40.7246 23.088 39.5628 23.088C38.6123 23.088 37.7674 22.9831 36.9225 22.7731C36.0776 22.5632 35.3383 22.2483 34.7046 21.7235C34.0709 21.3037 33.5429 20.6739 33.1204 19.9392C32.698 19.2045 32.5923 18.3648 32.5923 17.3152H36.0776C36.0776 18.0499 36.1832 18.4698 36.3944 18.8896Z" fill="white"/>
<path d="M50.9689 6.60938V12.6971H51.0746C51.497 11.9623 52.0251 11.5425 52.6588 11.2276C53.2924 10.9127 53.9261 10.8078 54.5598 10.8078C55.4047 10.8078 56.144 10.9127 56.6721 11.1227C57.2001 11.3326 57.6226 11.6475 57.9394 12.0673C58.2563 12.4871 58.4675 13.0119 58.5731 13.6417C58.6787 14.2715 58.7843 14.9012 58.7843 15.6359V22.8782H55.6159V16.2657C55.6159 15.3211 55.5103 14.5863 55.1935 14.0615C54.8766 13.5367 54.3486 13.3268 53.6093 13.3268C52.7644 13.3268 52.1307 13.5367 51.7082 14.0615C51.2858 14.5863 51.0746 15.426 51.0746 16.6855V22.8782H47.8005V6.60938H50.9689Z" fill="white"/>
<path d="M67.7612 13.8505C67.3388 13.4306 66.8107 13.2207 65.9658 13.2207C65.4377 13.2207 65.0153 13.3257 64.6984 13.4306C64.3816 13.6406 64.0648 13.8505 63.8535 14.0604C63.6423 14.2703 63.5367 14.5852 63.4311 14.9001C63.3255 15.215 63.3255 15.4249 63.3255 15.6348H68.6061C68.5005 14.9001 68.1837 14.2703 67.7612 13.8505ZM64.1704 20.0431C64.6984 20.463 65.3321 20.7778 66.2826 20.7778C66.9163 20.7778 67.55 20.5679 67.9725 20.253C68.3949 19.9382 68.7118 19.6233 68.8174 19.2034H71.6689C71.2465 20.5679 70.5072 21.6175 69.5567 22.2473C68.6061 22.877 67.4444 23.1919 66.0714 23.1919C65.1209 23.1919 64.276 23.087 63.5367 22.7721C62.7974 22.4572 62.1637 22.0374 61.6357 21.5126C61.1076 20.9878 60.6851 20.358 60.4739 19.5183C60.1571 18.7836 60.0515 17.9439 60.0515 16.9993C60.0515 16.1596 60.1571 15.3199 60.4739 14.5852C60.7907 13.8505 61.2132 13.2207 61.7413 12.591C62.2693 12.0662 62.903 11.6463 63.6423 11.3314C64.3816 11.0166 65.2265 10.8066 66.0714 10.8066C67.1276 10.8066 67.9725 11.0166 68.7118 11.4364C69.451 11.8562 70.0847 12.381 70.5072 13.0108C71.0352 13.6406 71.3521 14.3753 71.5633 15.215C71.7745 16.0546 71.8802 16.8943 71.7745 17.839H63.2199C63.3255 18.7836 63.6423 19.6233 64.1704 20.0431Z" fill="white"/>
<path d="M76.422 6.60938H73.148V22.8782H76.422V6.60938Z" fill="white"/>
<path d="M85.399 11.1233V13.3275H83.0755V19.2053C83.0755 19.7301 83.1811 20.1499 83.3923 20.2549C83.6035 20.4648 83.9204 20.5697 84.4485 20.5697C84.6597 20.5697 84.7653 20.5697 84.9765 20.5697C85.1877 20.5697 85.2934 20.5697 85.5046 20.4648V22.9838C85.1877 22.9838 84.8709 23.0888 84.5541 23.0888C84.2372 23.0888 83.9204 23.0888 83.6035 23.0888C83.0755 23.0888 82.653 23.0888 82.1249 22.9838C81.7025 22.8789 81.28 22.7739 80.9632 22.564C80.6464 22.3541 80.3295 22.0392 80.1183 21.7243C79.9071 21.3045 79.8015 20.7797 79.8015 20.2549V13.3275H77.7948V11.1233H79.8015V7.55469H83.0755V11.1233H85.399Z" fill="white"/>
<path d="M94.165 13.8524C93.7425 13.4326 93.2145 13.2227 92.3696 13.2227C91.8415 13.2227 91.4191 13.3276 91.1022 13.4326C90.7854 13.6425 90.4685 13.8524 90.2573 14.0624C90.0461 14.2723 89.9405 14.5872 89.8349 14.902C89.7292 15.2169 89.7292 15.4268 89.7292 15.6368H95.0099C94.7987 14.902 94.5875 14.2723 94.165 13.8524ZM90.4685 20.0451C90.9966 20.4649 91.6303 20.7798 92.5808 20.7798C93.2145 20.7798 93.8482 20.5699 94.2706 20.255C94.6931 19.9401 95.0099 19.6252 95.1155 19.2054H97.9671C97.5446 20.5699 96.8053 21.6195 95.8548 22.2492C94.9043 22.879 93.7426 23.1939 92.3696 23.1939C91.4191 23.1939 90.5741 23.0889 89.8349 22.774C89.0956 22.4592 88.4619 22.0393 87.9338 21.5145C87.4057 20.9897 86.9833 20.36 86.7721 19.5203C86.4552 18.7856 86.3496 17.9459 86.3496 17.0012C86.3496 16.1616 86.4552 15.3219 86.7721 14.5872C87.0889 13.8524 87.5114 13.2227 88.0394 12.5929C88.5675 12.0681 89.2012 11.6483 89.9405 11.3334C90.6798 11.0185 91.5247 10.8086 92.3696 10.8086C93.4257 10.8086 94.2706 11.0185 95.0099 11.4384C95.7492 11.8582 96.3829 12.383 96.8053 13.0128C97.3334 13.6425 97.6502 14.3772 97.8615 15.2169C98.0727 16.0566 98.1783 16.8963 98.0727 17.8409H89.518C89.7292 18.7856 90.0461 19.6252 90.4685 20.0451Z" fill="white"/>
<path d="M102.72 11.123V13.3271C102.825 13.0122 103.037 12.5924 103.353 12.2775C103.565 11.9626 103.881 11.7527 104.198 11.4378C104.515 11.2279 104.938 11.018 105.254 10.913C105.677 10.8081 105.994 10.7031 106.416 10.7031C106.627 10.7031 106.839 10.7031 107.155 10.8081V13.8519C107.05 13.8519 106.839 13.747 106.627 13.747C106.416 13.747 106.205 13.747 105.994 13.747C105.36 13.747 104.938 13.8519 104.515 14.0618C104.093 14.2718 103.776 14.4817 103.565 14.9015C103.353 15.2164 103.142 15.6362 103.037 16.0561C102.931 16.4759 102.825 17.0007 102.825 17.5255V22.8785H99.5513V11.123H102.72Z" fill="white"/>
<path d="M116.344 20.0443C116.66 20.0443 117.083 20.0443 117.4 19.9393C117.716 19.8343 118.033 19.7294 118.245 19.6244C118.456 19.4145 118.667 19.2046 118.878 18.9947C118.984 18.6798 119.089 18.3649 119.089 17.9451C119.089 17.1054 118.878 16.4756 118.35 16.1607C117.928 15.8459 117.294 15.6359 116.449 15.6359H112.541V20.1492H116.344V20.0443ZM116.132 13.2219C116.766 13.2219 117.294 13.1169 117.716 12.802C118.139 12.4871 118.35 11.9623 118.35 11.3326C118.35 10.9127 118.245 10.5979 118.139 10.3879C118.033 10.178 117.822 9.9681 117.611 9.86314C117.4 9.75818 117.083 9.65322 116.872 9.54826C116.555 9.54826 116.238 9.4433 115.921 9.4433H112.541V13.2219H116.132ZM116.555 6.60938C117.294 6.60938 118.033 6.71433 118.667 6.81929C119.301 6.92426 119.829 7.13418 120.357 7.44906C120.779 7.76394 121.202 8.18378 121.413 8.70858C121.624 9.23338 121.835 9.86314 121.835 10.5979C121.835 11.4375 121.624 12.0673 121.307 12.6971C120.885 13.2219 120.357 13.6417 119.618 14.0615C120.674 14.3764 121.413 14.9012 121.835 15.531C122.363 16.2657 122.575 17.1054 122.575 18.155C122.575 18.9947 122.363 19.7294 122.047 20.2542C121.73 20.8839 121.307 21.3038 120.779 21.7236C120.251 22.1435 119.618 22.3534 118.878 22.5633C118.139 22.7732 117.505 22.8782 116.766 22.8782H108.845V6.60938H116.555Z" fill="white"/>
<path d="M126.482 18.3657C126.588 18.7856 126.693 19.2054 126.904 19.6252C127.116 19.9401 127.433 20.255 127.749 20.4649C128.066 20.6748 128.594 20.7798 129.122 20.7798C129.65 20.7798 130.179 20.6748 130.495 20.4649C130.918 20.255 131.129 19.9401 131.34 19.6252C131.551 19.3104 131.763 18.8905 131.763 18.3657C131.868 17.9459 131.868 17.4211 131.868 17.0012C131.868 16.5814 131.868 16.0566 131.763 15.6368C131.657 15.2169 131.551 14.7971 131.34 14.3772C131.129 14.0624 130.812 13.7475 130.495 13.5376C130.073 13.3276 129.65 13.2227 129.122 13.2227C128.594 13.2227 128.066 13.3276 127.749 13.5376C127.433 13.7475 127.116 14.0624 126.904 14.3772C126.693 14.6921 126.482 15.112 126.482 15.6368C126.376 16.0566 126.376 16.5814 126.376 17.0012C126.376 17.4211 126.376 17.9459 126.482 18.3657ZM123.525 14.4822C123.842 13.7475 124.264 13.0128 124.792 12.488C125.32 11.9632 125.954 11.5433 126.693 11.2284C127.433 10.9136 128.277 10.8086 129.228 10.8086C130.179 10.8086 131.023 10.9136 131.763 11.2284C132.502 11.5433 133.136 11.9632 133.664 12.488C134.192 13.0128 134.614 13.6425 134.931 14.4822C135.248 15.2169 135.354 16.0566 135.354 17.0012C135.354 17.9459 135.248 18.7856 134.931 19.5203C134.614 20.255 134.192 20.8848 133.664 21.5145C133.136 22.1443 132.502 22.4592 131.763 22.774C131.023 23.0889 130.179 23.1939 129.228 23.1939C128.277 23.1939 127.433 23.0889 126.693 22.774C125.954 22.4592 125.32 22.0393 124.792 21.5145C124.264 20.9897 123.842 20.36 123.525 19.5203C123.208 18.7856 123.102 17.9459 123.102 17.0012C123.102 16.0566 123.208 15.2169 123.525 14.4822Z" fill="white"/>
<path d="M135.037 11.123H138.733L140.846 14.1669L142.852 11.123H146.443L142.641 16.581L146.971 22.8786H143.275L140.74 19.205L138.311 22.8786H134.615L138.945 16.6859L135.037 11.123Z" fill="white"/>
<path d="M21.5027 13.2222H14.321H14.1098H6.92806C6.92806 13.2222 6.29438 13.3271 6.39999 13.1172C6.71683 12.1726 7.03367 11.3329 7.35051 10.3882C7.35051 10.2833 7.45613 10.1783 7.56174 10.1783C7.66735 10.0734 7.77297 9.9684 7.77297 9.86344C7.87858 9.54856 8.08981 9.4436 8.40665 9.4436C8.72349 9.4436 9.04033 9.4436 9.25155 9.4436L9.14594 11.2279L9.56839 11.3329L9.67401 9.54856C9.67401 9.54856 10.4133 9.54856 10.8358 9.54856C10.9414 9.54856 11.1526 9.54856 11.2582 9.54856C11.2582 9.54856 11.3638 9.54856 11.3638 9.4436C11.4694 9.33864 11.575 9.23368 11.6807 9.23368C12.1031 9.23368 12.5256 9.23368 12.948 9.23368C13.0536 9.23368 13.0536 9.23368 13.1593 9.23368H15.2715C15.3771 9.23368 15.3771 9.23368 15.4827 9.23368C15.9052 9.23368 16.3277 9.23368 16.7501 9.23368C16.8557 9.23368 16.9613 9.23368 17.0669 9.33864H17.1726C17.2782 9.33864 17.4894 9.33864 17.595 9.33864C18.0175 9.33864 18.7568 9.33864 18.7568 9.33864L18.8624 11.123L19.2848 11.018L19.1792 9.12872C19.4961 9.12872 19.8129 9.12872 20.0241 9.12872C20.341 9.12872 20.5522 9.23368 20.6578 9.54856C20.6578 9.65352 20.7634 9.75848 20.869 9.86344C20.9746 9.9684 20.9746 9.9684 21.0803 10.0734C21.3971 11.018 21.7139 11.9626 22.0308 12.9073C22.0308 13.2222 21.5027 13.2222 21.5027 13.2222ZM21.2915 13.9569C21.1859 14.4817 21.1859 14.9015 21.0803 15.3214L20.6578 16.5809C20.6578 16.7908 20.6578 16.7908 20.6578 16.8958C20.6578 17.2106 20.5522 17.6305 20.4466 17.9454L20.1297 20.1495C20.1297 20.2545 20.1297 20.3594 20.1297 20.4644C20.1297 20.5694 20.0241 20.7793 19.9185 20.7793H18.968C18.8624 20.7793 18.8624 20.6743 18.7568 20.5694C18.7568 20.4644 18.6511 20.4644 18.6511 20.4644H14.321H9.99085C9.88523 20.4644 9.88523 20.4644 9.88523 20.5694C9.88523 20.6743 9.77962 20.7793 9.67401 20.7793H8.72349C8.61787 20.7793 8.51226 20.5694 8.51226 20.4644C8.51226 20.3594 8.51226 20.2545 8.51226 20.1495L7.98419 18.1553C7.98419 17.8404 7.87858 17.4206 7.77297 17.1057C7.77297 17.0007 7.77297 16.8958 7.77297 16.7908L7.35051 15.5313C7.2449 15.1114 7.2449 14.5866 7.13929 14.1668C7.13929 14.0618 7.13929 13.8519 7.13929 13.8519H9.46278L9.56839 14.5866C9.56839 14.5866 9.56839 14.5866 9.67401 14.5866H11.3638C11.3638 14.5866 11.4694 14.5866 11.4694 14.4817L11.3638 13.747H17.3838L17.2782 14.4817C17.2782 14.4817 17.2782 14.5866 17.3838 14.5866H19.0736H19.1792L19.2848 13.8519H21.6083C21.2915 13.642 21.2915 13.8519 21.2915 13.9569ZM14.2154 0.626953C6.5056 0.626953 0.274414 6.8196 0.274414 14.4817C0.274414 22.1438 6.5056 28.3364 14.2154 28.3364C21.9252 28.3364 28.1564 22.1438 28.1564 14.4817C28.262 6.8196 21.9252 0.626953 14.2154 0.626953Z" fill="white"/>
</g>
<defs>
<clipPath id="clip0_2817_145127">
<rect width="160" height="30.1449" fill="white" transform="translate(0.274414 0.626953)"/>
</clipPath>
</defs>
</svg>
